INFO

Format;Avi

File Size:613mb

Video: ID : 0
Format : MPEG-4 Visual
Format profile : Advanced Simple@L5
Format settings, BVOP : Yes
Format settings, QPel : No
Format settings, GMC : No warppoints
Format settings, Matrix : Default (H.263)
Codec ID : XVID
Codec ID/Hint : XviD
Duration : 1h 5mn
Bit rate : 1 117 Kbps
Width : 688 pixels
Height : 420 pixels
Display aspect ratio : 1.638
Frame rate : 29.970 fps
Color space : YUV
Chroma subsampling : 4:2:0
Bit depth : 8 bits
Scan type : Progressive
Bits/(Pixel*Frame) : 0.129
Stream size : 526 MiB (85%)
Writing library : XviD 1.2.1 (UTC 2008-12-04)

Audio: ID : 1
Format : AC-3
Format/Info : Audio Coding 3
Mode extension : CM (complete main)
Codec ID : 2000
Duration : 1h 5mn
Bit rate mode : Constant
Bit rate : 192 Kbps
Channel(s) : 2 channels
Channel positions : Front: L R
Sampling rate : 48.0 KHz
Bit depth : 16 bits
Stream size : 90.4 MiB (15%)
Alignment : Split accross interleaves
Interleave, duration : 500 ms (14.98 video frames)
Interleave, preload duration : 500 ms


Duration:1:05

Release Date:2010

Language:English


Plot: 

Join your favorite characters as they learn the value of responsibility and friendship with animal friends! Help Bob solve a barnyard mystery for Farmer Pickles and watch Thomas and Percy search for golden eagles and Fireman Sam save a baby sheep from a fire. Then learn why it takes more than just puppy love to be a good dog owner with Barney. From household pets to wild beasts and barnyard buddies, your favorite friends will have you smiling fur-ever!


Screenshots:

 
http://www.leetleech.org/images/09399254120933911155.png
 
http://www.leetleech.org/images/69369152720908271636.png
 
http://www.leetleech.org/images/87823141056714965199.png


ENJOY!